<svg width="24" height="22" viewBox="0 0 24 22" fill="none" xmlns="http://www.w3.org/2000/svg">
<path fill-rule="evenodd" clip-rule="evenodd" d="M16.4415 17.4825C16.8693 17.0266 17.1432 16.4479 17.2245 15.828L21.8895 17.901C22.1178 18.0027 22.368 18.0458 22.6172 18.0263C22.8664 18.0067 23.1068 17.9252 23.3165 17.7892C23.5262 17.6531 23.6986 17.4668 23.8179 17.2471C23.9373 17.0275 23.9999 16.7815 24 16.5315V5.3385C23.9998 5.08871 23.9372 4.84294 23.8179 4.62347C23.6986 4.40401 23.5264 4.21781 23.3169 4.08178C23.1074 3.94574 22.8673 3.86417 22.6183 3.84448C22.3693 3.82478 22.1193 3.86759 21.891 3.969L17.2245 6.042C17.1292 5.32063 16.7749 4.65849 16.2277 4.17889C15.6805 3.69929 14.9776 3.43491 14.25 3.435H6.408L16.443 17.4825H16.4415ZM1.2705 3.9825C0.877833 4.2597 0.557479 4.62714 0.336387 5.05393C0.115295 5.48071 -6.90215e-05 5.95435 3.09809e-08 6.435V15.435C3.09809e-08 16.2306 0.316071 16.9937 0.87868 17.5563C1.44129 18.1189 2.20435 18.435 3 18.435H11.592L1.2705 3.984V3.9825ZM15.8895 21.87L0.8895 0.87L2.1105 0L17.1105 21L15.8895 21.87Z" fill="#EEEEEF"/>
</svg>
