<svg width="24" height="24" viewBox="0 0 24 24" fill="none" xmlns="http://www.w3.org/2000/svg">
<path d="M15.9994 17.0609L18.0672 14.9932C18.3439 14.7163 18.6959 14.5268 19.0794 14.448C19.4628 14.3692 19.861 14.4047 20.2245 14.5501L22.7427 15.5581C23.1139 15.7066 23.432 15.9629 23.6561 16.294C23.8802 16.625 24 17.0156 24 17.4154V21.995C24.0006 22.2672 23.9457 22.5366 23.8386 22.7868C23.7315 23.0371 23.5745 23.2628 23.3771 23.4503C23.1797 23.6377 22.9462 23.7829 22.6908 23.8769C22.4353 23.971 22.1634 24.0119 21.8916 23.9972C4.23989 22.8987 0.674833 7.94799 0.0129625 2.22286C-0.0190938 1.94297 0.00846948 1.65946 0.0938397 1.39099C0.17921 1.12251 0.320453 0.875153 0.508277 0.66518C0.696102 0.455207 0.926252 0.287378 1.18359 0.172732C1.44093 0.0580858 1.71962 -0.000779504 2.00134 7.79422e-06H6.49966C6.89943 -5.04259e-06 7.29004 0.119764 7.62109 0.343866C7.95214 0.567968 8.20845 0.886121 8.35696 1.25728L9.36407 3.77553C9.50941 4.13903 9.5449 4.53718 9.46614 4.92065C9.38738 5.30412 9.19783 5.65606 8.92098 5.93284L6.85321 8.00061C6.85321 8.00061 7.99972 16.0612 15.9994 17.0609Z" fill="#EEEEEF"/>
<path d="M19.7628 5.53792L23.0768 2.22395L21.7752 0.922363L18.4613 4.23633L15.1473 0.922363L13.8457 2.22395L17.1597 5.53792L13.8457 8.85188L15.1473 10.1535L18.4613 6.8395L21.7752 10.1535L23.0768 8.85188L19.7628 5.53792Z" fill="#EEEEEF"/>
</svg>
