<svg width="24" height="24" viewBox="0 0 24 24" fill="none" xmlns="http://www.w3.org/2000/svg">
<path d="M12.7059 11.2941C12.8527 11.2941 12.9953 11.3054 13.1365 11.3266C12.1294 12.0443 11.3086 12.9925 10.7425 14.092C10.1764 15.1915 9.8815 16.4104 9.88235 17.6471C9.88235 18.8104 10.1379 19.9158 10.5967 20.9054C9.66436 21.0917 8.71546 21.1825 7.76471 21.1765C2.94776 21.1765 0 19.1351 0 16.2353V14.1177C0 13.3688 0.297478 12.6506 0.826993 12.1211C1.35651 11.5916 2.07468 11.2941 2.82353 11.2941H12.7059Z" fill="#EEEEEF"/>
<path d="M21.1765 6.3529C21.1765 7.28896 20.8047 8.18668 20.1428 8.84857C19.4809 9.51046 18.5831 9.88231 17.6471 9.88231C16.711 9.88231 15.8133 9.51046 15.1514 8.84857C14.4895 8.18668 14.1177 7.28896 14.1177 6.3529C14.1177 5.41684 14.4895 4.51912 15.1514 3.85723C15.8133 3.19533 16.711 2.82349 17.6471 2.82349C18.5831 2.82349 19.4809 3.19533 20.1428 3.85723C20.8047 4.51912 21.1765 5.41684 21.1765 6.3529V6.3529Z" fill="#EEEEEF"/>
<path d="M7.76466 0C8.41355 -9.66913e-09 9.05608 0.127807 9.65557 0.376125C10.2551 0.624442 10.7998 0.988406 11.2586 1.44724C11.7174 1.90607 12.0814 2.45078 12.3297 3.05027C12.578 3.64976 12.7058 4.29229 12.7058 4.94118C12.7058 5.59006 12.578 6.23259 12.3297 6.83208C12.0814 7.43157 11.7174 7.97629 11.2586 8.43512C10.7998 8.89395 10.2551 9.25791 9.65557 9.50623C9.05608 9.75455 8.41355 9.88235 7.76466 9.88235C6.45418 9.88235 5.19737 9.36177 4.27072 8.43512C3.34407 7.50847 2.82349 6.25166 2.82349 4.94118C2.82349 3.6307 3.34407 2.37389 4.27072 1.44724C5.19737 0.520587 6.45418 1.95277e-08 7.76466 0V0Z" fill="#EEEEEF"/>
<path d="M24.0001 17.6471C24.0001 19.332 23.3307 20.9479 22.1393 22.1393C20.9479 23.3307 19.332 24 17.6471 24C15.9622 24 14.3463 23.3307 13.1549 22.1393C11.9635 20.9479 11.2942 19.332 11.2942 17.6471C11.2942 15.9622 11.9635 14.3463 13.1549 13.1549C14.3463 11.9635 15.9622 11.2941 17.6471 11.2941C19.332 11.2941 20.9479 11.9635 22.1393 13.1549C23.3307 14.3463 24.0001 15.9622 24.0001 17.6471V17.6471ZM18.353 14.8235C18.353 14.6363 18.2786 14.4568 18.1463 14.3244C18.0139 14.192 17.8343 14.1177 17.6471 14.1177C17.4599 14.1177 17.2804 14.192 17.148 14.3244C17.0156 14.4568 16.9412 14.6363 16.9412 14.8235V16.9412H14.8236C14.6364 16.9412 14.4568 17.0156 14.3245 17.1479C14.1921 17.2803 14.1177 17.4599 14.1177 17.6471C14.1177 17.8343 14.1921 18.0138 14.3245 18.1462C14.4568 18.2786 14.6364 18.353 14.8236 18.353H16.9412V20.4706C16.9412 20.6578 17.0156 20.8374 17.148 20.9697C17.2804 21.1021 17.4599 21.1765 17.6471 21.1765C17.8343 21.1765 18.0139 21.1021 18.1463 20.9697C18.2786 20.8374 18.353 20.6578 18.353 20.4706V18.353H20.4707C20.6579 18.353 20.8374 18.2786 20.9698 18.1462C21.1022 18.0138 21.1765 17.8343 21.1765 17.6471C21.1765 17.4599 21.1022 17.2803 20.9698 17.1479C20.8374 17.0156 20.6579 16.9412 20.4707 16.9412H18.353V14.8235Z" fill="#EEEEEF"/>
</svg>
