<svg width="24" height="25" viewBox="0 0 24 25" fill="none" xmlns="http://www.w3.org/2000/svg">
<path d="M12.7059 11.7941C12.8527 11.7941 12.9953 11.8054 13.1365 11.8266C12.1294 12.5443 11.3086 13.4925 10.7425 14.592C10.1764 15.6915 9.8815 16.9104 9.88235 18.1471C9.88235 19.3104 10.1379 20.4158 10.5967 21.4054C9.66436 21.5917 8.71546 21.6825 7.76471 21.6765C2.94776 21.6765 0 19.6351 0 16.7353V14.6177C0 13.8688 0.297478 13.1506 0.826993 12.6211C1.35651 12.0916 2.07468 11.7941 2.82353 11.7941H12.7059Z" fill="#EEEEEF"/>
<path d="M21.1765 6.8529C21.1765 7.78896 20.8047 8.68668 20.1428 9.34857C19.4809 10.0105 18.5831 10.3823 17.6471 10.3823C16.711 10.3823 15.8133 10.0105 15.1514 9.34857C14.4895 8.68668 14.1177 7.78896 14.1177 6.8529C14.1177 5.91684 14.4895 5.01912 15.1514 4.35723C15.8133 3.69533 16.711 3.32349 17.6471 3.32349C18.5831 3.32349 19.4809 3.69533 20.1428 4.35723C20.8047 5.01912 21.1765 5.91684 21.1765 6.8529V6.8529Z" fill="#EEEEEF"/>
<path d="M7.76466 0.5C8.41355 0.5 9.05608 0.627807 9.65557 0.876125C10.2551 1.12444 10.7998 1.48841 11.2586 1.94724C11.7174 2.40607 12.0814 2.95078 12.3297 3.55027C12.578 4.14976 12.7058 4.79229 12.7058 5.44118C12.7058 6.09006 12.578 6.73259 12.3297 7.33208C12.0814 7.93157 11.7174 8.47629 11.2586 8.93512C10.7998 9.39395 10.2551 9.75791 9.65557 10.0062C9.05608 10.2545 8.41355 10.3824 7.76466 10.3824C6.45418 10.3824 5.19737 9.86177 4.27072 8.93512C3.34407 8.00847 2.82349 6.75166 2.82349 5.44118C2.82349 4.1307 3.34407 2.87389 4.27072 1.94724C5.19737 1.02059 6.45418 0.5 7.76466 0.5V0.5Z" fill="#EEEEEF"/>
<path d="M24.0001 18.1471C24.0001 19.832 23.3307 21.4479 22.1393 22.6393C20.9479 23.8307 19.332 24.5 17.6471 24.5C15.9622 24.5 14.3463 23.8307 13.1549 22.6393C11.9635 21.4479 11.2942 19.832 11.2942 18.1471C11.2942 16.4622 11.9635 14.8463 13.1549 13.6549C14.3463 12.4635 15.9622 11.7941 17.6471 11.7941C19.332 11.7941 20.9479 12.4635 22.1393 13.6549C23.3307 14.8463 24.0001 16.4622 24.0001 18.1471V18.1471ZM18.353 15.3235C18.353 15.1363 18.2786 14.9568 18.1463 14.8244C18.0139 14.692 17.8343 14.6177 17.6471 14.6177C17.4599 14.6177 17.2804 14.692 17.148 14.8244C17.0156 14.9568 16.9412 15.1363 16.9412 15.3235V17.4412H14.8236C14.6364 17.4412 14.4568 17.5156 14.3245 17.6479C14.1921 17.7803 14.1177 17.9599 14.1177 18.1471C14.1177 18.3343 14.1921 18.5138 14.3245 18.6462C14.4568 18.7786 14.6364 18.853 14.8236 18.853H16.9412V20.9706C16.9412 21.1578 17.0156 21.3374 17.148 21.4697C17.2804 21.6021 17.4599 21.6765 17.6471 21.6765C17.8343 21.6765 18.0139 21.6021 18.1463 21.4697C18.2786 21.3374 18.353 21.1578 18.353 20.9706V18.853H20.4707C20.6579 18.853 20.8374 18.7786 20.9698 18.6462C21.1022 18.5138 21.1765 18.3343 21.1765 18.1471C21.1765 17.9599 21.1022 17.7803 20.9698 17.6479C20.8374 17.5156 20.6579 17.4412 20.4707 17.4412H18.353V15.3235Z" fill="#EEEEEF"/>
</svg>
