<svg width="20" height="24" viewBox="0 0 20 24" fill="none" xmlns="http://www.w3.org/2000/svg">
<path d="M10.201 16.8076C12.8454 16.8076 14.9959 14.657 14.9959 12.0126V4.82014C14.9959 2.16253 12.8562 0 10.2261 0C10.1418 0.000506953 10.0577 0.0105604 9.97561 0.0299685C8.7448 0.0896422 7.58403 0.620174 6.73347 1.51179C5.8829 2.40342 5.40764 3.58789 5.40601 4.82014V12.0126C5.40601 14.657 7.55655 16.8076 10.201 16.8076Z" fill="#EEEEEF"/>
<path d="M9.00215 21.5198V24H11.3996V21.5198C16.1215 20.9264 19.7908 16.895 19.7908 12.0126H17.3933C17.3933 15.9792 14.1675 19.205 10.2009 19.205C6.23426 19.205 3.00845 15.9792 3.00845 12.0126H0.610962C0.610962 16.8938 4.28031 20.9264 9.00215 21.5198Z" fill="#EEEEEF"/>
</svg>
