<svg width="24" height="31" viewBox="0 0 24 31" fill="none" xmlns="http://www.w3.org/2000/svg">
<path d="M12 21.0315C15.309 21.0315 18 18.3405 18 15.0315V6.0315C18 2.706 15.3225 0 12.0315 0C11.9259 0.000634356 11.8208 0.0132144 11.718 0.0375C10.1779 0.11217 8.72539 0.776031 7.66107 1.89173C6.59674 3.00742 6.00204 4.48957 6 6.0315V15.0315C6 18.3405 8.691 21.0315 12 21.0315Z" fill="#EEEEEF"/>
<path d="M10.5 26.928V30.0315H13.5V26.928C19.4085 26.1855 24 21.141 24 15.0315H21C21 19.995 16.9635 24.0315 12 24.0315C7.0365 24.0315 3 19.995 3 15.0315H0C0 21.1395 4.5915 26.1855 10.5 26.928Z" fill="#EEEEEF"/>
</svg>
