<svg width="24" height="25" viewBox="0 0 24 25" fill="none" xmlns="http://www.w3.org/2000/svg">
<path d="M24 22.6402L19.7968 18.437C21.1516 16.7117 21.8885 14.5818 21.8898 12.3882H19.4173C19.4161 13.9264 18.9323 15.4255 18.034 16.6742L16.2427 14.8816C16.6984 14.1294 16.9411 13.2676 16.9449 12.3882V4.97085C16.9449 2.23014 14.7382 0 12.026 0C11.9394 0 11.8529 0.011126 11.7676 0.0309055C10.4983 0.092445 9.30124 0.639564 8.42408 1.55906C7.54692 2.47856 7.0568 3.70007 7.05511 4.97085V5.69527L1.74802 0.388173L0 2.13619L22.252 24.3882L24 22.6402ZM4.58267 12.3882H2.11023C2.11023 17.4221 5.89307 21.5807 10.7638 22.1926V24.7504H13.2362V22.1926C14.1929 22.0706 15.1264 21.8082 16.0066 21.4138L14.0917 19.5002C13.4127 19.7016 12.7083 19.8044 12 19.8055C7.90934 19.8055 4.58267 16.4788 4.58267 12.3882Z" fill="#EEEEEF"/>
<path d="M7.06396 12.4711C7.0862 13.7513 7.60468 14.9729 8.51009 15.8783C9.41551 16.7838 10.6371 17.3022 11.9174 17.3245L7.06396 12.4711Z" fill="#EEEEEF"/>
</svg>
