<svg width="24" height="24" viewBox="0 0 24 24" fill="none" xmlns="http://www.w3.org/2000/svg">
<path d="M23.2724 21.9537L19.1966 17.878C20.5103 16.205 21.2249 14.1397 21.2261 12.0126H18.8286C18.8274 13.5042 18.3583 14.9578 17.4872 16.1686L15.7503 14.4304C16.1921 13.7011 16.4274 12.8653 16.4311 12.0126V4.82014C16.4311 2.16253 14.2914 0 11.6614 0C11.5774 0 11.4935 0.0107886 11.4108 0.0299685C10.18 0.0896422 9.01924 0.620174 8.16868 1.51179C7.31811 2.40342 6.84285 3.58789 6.84122 4.82014V5.5226L1.69502 0.376405L0 2.07143L21.5773 23.6488L23.2724 21.9537ZM4.44373 12.0126H2.04625C2.04625 16.8939 5.7144 20.9264 10.4374 21.5198V24H12.8349V21.5198C13.7626 21.4015 14.6678 21.147 15.5213 20.7646L13.6645 18.9089C13.006 19.1042 12.323 19.204 11.6362 19.205C7.66955 19.205 4.44373 15.9792 4.44373 12.0126Z" fill="#EEEEEF"/>
<path d="M6.84973 12.093C6.87129 13.3344 7.37405 14.519 8.25202 15.3969C9.12998 16.2749 10.3145 16.7777 11.556 16.7992L6.84973 12.093Z" fill="#EEEEEF"/>
</svg>
