<svg width="60" height="47" viewBox="0 0 60 47" fill="none" xmlns="http://www.w3.org/2000/svg">
<path d="M30 10.574L25.9819 10.8459C23.3837 7.76435 16.1027 0 8.85196 0C8.85196 0 2.9003 8.9426 8.73112 20.8761C7.06949 23.3837 6.0423 24.6828 5.83082 27.6737L0 28.5498L0.634441 31.5106L5.95166 30.7251L6.37462 32.8701L1.63142 35.71L3.05136 38.3988L7.43202 35.71C10.9063 43.0816 19.6979 46.8278 30 46.8278C40.3021 46.8278 49.0937 43.0816 52.568 35.71L56.9486 38.3988L58.3686 35.71L53.6254 32.8701L54.0483 30.7251L59.3656 31.5106L60 28.5498L54.1692 27.6737C53.9577 24.6828 52.9305 23.3837 51.2689 20.8761C57.0997 8.9426 51.148 0 51.148 0C43.8973 0 36.6163 7.76435 34.0181 10.8459L30 10.574ZM20.9366 19.6375C21.7378 19.6375 22.5063 19.9558 23.0728 20.5223C23.6394 21.0889 23.9577 21.8574 23.9577 22.6586C23.9577 23.4599 23.6394 24.2283 23.0728 24.7949C22.5063 25.3615 21.7378 25.6798 20.9366 25.6798C20.1353 25.6798 19.3669 25.3615 18.8003 24.7949C18.2337 24.2283 17.9154 23.4599 17.9154 22.6586C17.9154 21.8574 18.2337 21.0889 18.8003 20.5223C19.3669 19.9558 20.1353 19.6375 20.9366 19.6375V19.6375ZM39.0634 19.6375C39.8647 19.6375 40.6331 19.9558 41.1997 20.5223C41.7663 21.0889 42.0846 21.8574 42.0846 22.6586C42.0846 23.4599 41.7663 24.2283 41.1997 24.7949C40.6331 25.3615 39.8647 25.6798 39.0634 25.6798C38.2622 25.6798 37.4937 25.3615 36.9272 24.7949C36.3606 24.2283 36.0423 23.4599 36.0423 22.6586C36.0423 21.8574 36.3606 21.0889 36.9272 20.5223C37.4937 19.9558 38.2622 19.6375 39.0634 19.6375V19.6375ZM26.9789 28.7009H33.0211L30.9063 32.9003C31.5106 34.8338 33.2024 36.2538 35.287 36.2538C36.4889 36.2538 37.6416 35.7763 38.4914 34.9265C39.3413 34.0766 39.8187 32.9239 39.8187 31.7221H41.3293C41.3293 33.3246 40.6927 34.8615 39.5596 35.9946C38.4264 37.1278 36.8895 37.7643 35.287 37.7643C33.0211 37.7643 31.0574 36.5257 30 34.7432C28.9426 36.5257 26.9789 37.7643 24.713 37.7643C23.1105 37.7643 21.5736 37.1278 20.4404 35.9946C19.3073 34.8615 18.6707 33.3246 18.6707 31.7221H20.1813C20.1813 32.9239 20.6587 34.0766 21.5086 34.9265C22.3584 35.7763 23.5111 36.2538 24.713 36.2538C26.7976 36.2538 28.4894 34.8338 29.0937 32.9003L26.9789 28.7009Z" fill="#348065"/>
</svg>
