<svg width="60" height="61" viewBox="0 0 60 61" fill="none" xmlns="http://www.w3.org/2000/svg">
<path d="M57.6646 18.4161C56.159 14.8224 53.9687 11.5559 51.2157 8.79871C48.471 6.03675 45.2105 3.84084 41.6196 2.33563C37.9409 0.786179 33.9884 -0.00806946 29.9969 6.18075e-05H29.8626C25.8028 0.020196 21.8771 0.825564 18.1795 2.40946C14.6194 3.93009 11.3896 6.12991 8.67066 8.88596C5.94436 11.6369 3.77913 14.892 2.29561 18.4698C0.755635 22.1904 -0.0246769 26.1814 0.000594768 30.2081C0.0207265 34.8658 1.13468 39.49 3.21496 43.6242V53.8255C3.21496 55.5302 4.59734 56.9128 6.29511 56.9128H16.4818C20.6348 59.0086 25.2176 60.1114 29.8694 60.1342H30.0103C34.0232 60.1342 37.9086 59.3557 41.5726 57.8322C45.1454 56.345 48.3936 54.1746 51.1352 51.443C53.8999 48.698 56.0741 45.4899 57.5974 41.9128C59.1744 38.2081 59.9797 34.2685 59.9998 30.2014C60.0133 26.1141 59.2214 22.1477 57.6646 18.4161ZM16.6026 33.2886C14.831 33.2886 13.3882 31.8457 13.3882 30.0671C13.3882 28.2886 14.831 26.8457 16.6026 26.8457C18.3741 26.8457 19.8169 28.2886 19.8169 30.0671C19.8169 31.8457 18.3809 33.2886 16.6026 33.2886ZM29.9969 33.2886C28.2253 33.2886 26.7825 31.8457 26.7825 30.0671C26.7825 28.2886 28.2253 26.8457 29.9969 26.8457C31.7685 26.8457 33.2112 28.2886 33.2112 30.0671C33.2112 31.8457 31.7685 33.2886 29.9969 33.2886ZM43.3912 33.2886C41.6196 33.2886 40.1768 31.8457 40.1768 30.0671C40.1768 28.2886 41.6196 26.8457 43.3912 26.8457C45.1628 26.8457 46.6055 28.2886 46.6055 30.0671C46.6055 31.8457 45.1628 33.2886 43.3912 33.2886Z" fill="#348065"/>
</svg>
