<svg width="60" height="43" viewBox="0 0 60 43" fill="none" xmlns="http://www.w3.org/2000/svg">
<path d="M40.7143 42.8571H4.28571C3.14907 42.8571 2.05898 42.4056 1.25526 41.6019C0.451529 40.7982 0 39.7081 0 38.5714V4.28571C0 3.14907 0.451529 2.05898 1.25526 1.25526C2.05898 0.451529 3.14907 0 4.28571 0H40.7143C41.8509 0 42.941 0.451529 43.7447 1.25526C44.5485 2.05898 45 3.14907 45 4.28571V12.9857L56.6143 4.69286C56.9341 4.46514 57.3103 4.32966 57.7019 4.30122C58.0935 4.27278 58.4854 4.35246 58.8347 4.53157C59.1841 4.71068 59.4776 4.98233 59.6831 5.31687C59.8886 5.6514 59.9982 6.03597 60 6.42857V36.4286C59.9982 36.8212 59.8886 37.2057 59.6831 37.5403C59.4776 37.8748 59.1841 38.1465 58.8347 38.3256C58.4854 38.5047 58.0935 38.5844 57.7019 38.5559C57.3103 38.5275 56.9341 38.392 56.6143 38.1643L45 29.8714V38.5714C45 39.7081 44.5485 40.7982 43.7447 41.6019C42.941 42.4056 41.8509 42.8571 40.7143 42.8571Z" fill="#348065"/>
</svg>
